<svg xmlns="http://www.w3.org/2000/svg" width="256" height="256" viewBox="0 0 100 100">
    <rect width="100" height="100" rx="20" fill="#6eace7"></rect>
    <path fill="#fff"
          d="M36.63 22.42L66.52 22.42Q66.78 22.87 67.06 23.63Q67.32 24.40 67.32 25.30L67.32 25.30Q67.32 26.83 66.60 27.73Q65.88 28.63 64.53 28.63L64.53 28.63L40.05 28.63L40.05 47.35L63.36 47.35Q63.63 47.80 63.91 48.56Q64.17 49.33 64.17 50.23L64.17 50.23Q64.17 51.76 63.45 52.66Q62.73 53.56 61.38 53.56L61.38 53.56L40.05 53.56L40.05 77.05Q39.60 77.23 38.66 77.41Q37.71 77.59 36.72 77.59L36.72 77.59Q32.67 77.59 32.67 74.34L32.67 74.34L32.67 26.38Q32.67 24.58 33.75 23.50Q34.84 22.42 36.63 22.42L36.63 22.42Z"></path>
</svg>